<svg width="44" height="44" viewBox="0 0 44 44" fill="none" xmlns="http://www.w3.org/2000/svg">
<path d="M22.097 0L0 21.758L22.097 44L44 21.758L22.097 0ZM7.33333 23.6938C7.21693 23.8099 7.04233 23.8874 6.82892 23.8874C6.61552 23.8874 6.46032 23.8293 6.32451 23.6938C6.20811 23.5777 6.13051 23.4034 6.13051 23.1905C6.13051 22.9776 6.18871 22.8227 6.32451 22.6872C6.44092 22.5711 6.61552 22.4936 6.82892 22.4936C7.04233 22.4936 7.19753 22.5517 7.33333 22.6872C7.44974 22.8033 7.52734 22.9776 7.52734 23.1905C7.50794 23.4034 7.44974 23.5777 7.33333 23.6938ZM29.0423 27.3911H30.4198C30.6138 27.3911 30.7108 27.4879 30.7108 27.6815C30.7108 27.8751 30.6138 27.9718 30.4198 27.9718H26.6561C26.4621 27.9718 26.3651 27.8751 26.3651 27.6815C26.3651 27.4879 26.4621 27.3911 26.6561 27.3911H27.8395C28.0335 27.3911 28.1305 27.2943 28.1305 27.1007V15.5055C28.1305 15.4474 28.1111 15.3894 28.0917 15.37C28.0723 15.3506 28.0529 15.3313 28.0335 15.3313C28.0141 15.3313 27.9947 15.37 27.9559 15.4087L22.4462 27.6815C22.3492 27.8751 22.194 27.9718 22.0194 27.9718C21.8254 27.9718 21.6896 27.8751 21.5926 27.6815L16.0247 15.4087C16.0053 15.37 15.9665 15.3506 15.9471 15.3313C15.9277 15.3313 15.9083 15.3313 15.8889 15.37C15.8695 15.3894 15.8501 15.4474 15.8501 15.5055V27.0814C15.8501 27.275 15.9471 27.3718 16.1411 27.3718H17.3245C17.5185 27.3718 17.6155 27.4685 17.6155 27.6621C17.6155 27.8557 17.5185 27.9525 17.3245 27.9525H13.5802C13.3862 27.9525 13.2892 27.8557 13.2892 27.6621C13.2892 27.4685 13.3862 27.3718 13.5802 27.3718H14.9771C15.1711 27.3718 15.2681 27.275 15.2681 27.0814V15.0216C15.2681 14.828 15.1711 14.7312 14.9771 14.7312H13.5802C13.3862 14.7312 13.2892 14.6344 13.2892 14.4408C13.2892 14.2472 13.3862 14.1311 13.5802 14.1311H15.7531C15.9859 14.1311 16.1605 14.2279 16.2575 14.4215L21.806 26.6942C21.9418 26.9652 22.0776 26.9652 22.194 26.6942L27.7425 14.4215C27.8395 14.2279 27.9947 14.1311 28.2469 14.1311H30.4198C30.6138 14.1311 30.7108 14.2279 30.7108 14.4215C30.7108 14.615 30.6138 14.7118 30.4198 14.7118H29.0423C28.8483 14.7118 28.7513 14.8086 28.7513 15.0022V27.062C28.7513 27.275 28.8483 27.3911 29.0423 27.3911ZM35.7548 23.8874C35.5414 23.8874 35.3862 23.8293 35.2504 23.6938C35.134 23.5777 35.0564 23.4034 35.0564 23.1905C35.0564 22.9776 35.1146 22.8227 35.2504 22.6872C35.3668 22.5711 35.5414 22.4936 35.7548 22.4936C35.9683 22.4936 36.1235 22.5517 36.2593 22.6872C36.3757 22.8033 36.4533 22.9776 36.4533 23.1905C36.4533 23.4034 36.3951 23.5583 36.2593 23.6938C36.1235 23.8293 35.9683 23.8874 35.7548 23.8874Z" fill="#1A1919"/>
</svg>
