<svg width="145" height="32" viewBox="0 0 145 32" fill="none" xmlns="http://www.w3.org/2000/svg">
<path d="M1.98127 10.0661V10.617H0.86377V10.0661V0.55088V0H1.77809L1.93047 0.35056L5.68934 8.71392L9.39741 0.35056L9.54979 0H10.5149V0.55088V10.0661V10.617H9.34661V10.0661V3.20512L6.19729 10.3165L6.04491 10.617H5.28297L5.13059 10.3165L1.98127 3.20512V10.0661Z" fill="#1A1919"/>
<path d="M21.5376 5.30848C21.5376 2.45392 23.8742 0 26.5156 0C29.2077 0 31.4935 2.504 31.4427 5.30848C31.4427 8.16304 29.2077 10.667 26.4648 10.617C23.8234 10.667 21.5376 8.16304 21.5376 5.30848ZM22.6551 5.30848C22.6551 7.71232 24.3313 9.5152 26.5156 9.5152C28.6998 9.5152 30.3252 7.71232 30.3252 5.30848C30.3252 2.90464 28.6998 1.10176 26.5156 1.10176C24.3313 1.10176 22.6551 2.90464 22.6551 5.30848ZM49.5767 2.95472V3.5056H48.4592V2.95472C48.4592 1.90304 47.4941 1.15184 46.021 1.15184C44.5479 1.15184 43.6336 1.95312 43.5828 2.95472C43.5828 4.7576 49.8307 4.80768 49.8307 7.7624C49.8307 9.31488 48.002 10.667 46.021 10.667C44.04 10.667 42.1606 9.31488 42.1606 7.7624V7.21152H43.278V7.7624C43.278 8.764 44.3956 9.56528 45.9702 9.56528C47.5957 9.56528 48.6624 8.81408 48.6624 7.7624C48.6624 5.90944 42.4145 5.90944 42.4145 2.95472C42.4145 1.35216 44.1416 0.05008 45.9702 0C47.9004 0 49.5767 1.35216 49.5767 2.95472ZM60.9041 5.30848C60.9041 2.45392 63.2407 0 65.882 0C68.5742 0 70.86 2.504 70.8092 5.30848C70.8092 6.56048 70.352 7.7624 69.6409 8.66384L70.6568 9.66544L71.0632 10.0661L70.2504 10.8674L69.8441 10.4667L68.879 9.5152C68.0154 10.2163 66.9995 10.667 65.882 10.667C63.1899 10.667 60.9041 8.16304 60.9041 5.30848ZM62.0216 5.30848C62.0216 7.71232 63.6978 9.5152 65.882 9.5152C66.7455 9.5152 67.5075 9.21472 68.1678 8.764L67.5075 8.11296L67.1011 7.71232L67.9138 6.91104L68.3202 7.31168L68.9298 7.91264C69.4377 7.21152 69.6917 6.31008 69.6917 5.30848C69.6917 2.90464 68.0662 1.10176 65.882 1.10176C63.6978 1.10176 62.0216 2.90464 62.0216 5.30848ZM82.1366 0.55088V0H83.3049V0.55088V6.05968C83.3049 8.06288 84.6763 9.5152 86.4542 9.5152C88.232 9.5152 89.6035 8.06288 89.6035 6.05968V0.55088V0H90.7718V0.55088V6.05968C90.7718 8.46352 88.8416 10.617 86.505 10.617C84.2192 10.617 82.2382 8.5136 82.2382 6.05968V0.55088H82.1366ZM102.252 0.55088V0H103.369V0.55088V10.0661V10.617H102.252V10.0661V0.55088ZM119.065 0H122.011H122.57V1.10176H122.011H119.065V10.0661V10.617H117.947V10.0661V1.10176H114.95H114.392V0H114.95H117.947H119.065ZM133.643 5.30848C133.643 2.45392 135.98 0 138.621 0C141.313 0 143.599 2.504 143.548 5.30848C143.548 8.16304 141.313 10.667 138.57 10.617C135.929 10.667 133.643 8.16304 133.643 5.30848ZM134.761 5.30848C134.761 7.71232 136.437 9.5152 138.621 9.5152C140.805 9.5152 142.431 7.71232 142.431 5.30848C142.431 2.90464 140.805 1.10176 138.621 1.10176C136.437 1.10176 134.761 2.90464 134.761 5.30848Z" fill="#1A1919"/>
<path d="M144.005 15.376H0V16.027H144.005V15.376Z" fill="#1A1919"/>
<path d="M0.863858 18.8301H2.28613C2.54011 18.8301 2.6417 18.9803 2.69249 19.3309C2.69249 19.381 2.69249 19.381 2.6417 19.381L2.69249 19.4811C2.6417 20.4827 2.6417 21.2339 2.6417 21.7347L2.5909 21.8349L2.6417 21.935C2.5909 22.2355 2.5909 22.3858 2.5909 22.4358C2.5909 22.4859 2.5909 22.6362 2.6417 22.7864C2.5909 22.9867 2.5909 23.137 2.5909 23.2371C2.6417 23.6378 2.6417 23.8381 2.6417 23.9883H2.69249C3.04806 23.4374 3.55602 23.187 4.26715 23.187C4.8259 23.187 5.38465 23.4875 5.89261 24.0885C6.34977 24.5392 6.60374 25.641 6.60374 27.3938C6.60374 28.8962 6.40056 29.8477 5.9942 30.1982C5.43545 30.9494 4.9275 31.3 4.47034 31.3H4.01318C3.25124 31.1498 2.89568 30.9995 2.89568 30.8994C2.89568 30.8994 2.74329 30.7992 2.5909 30.5488H2.54011V30.8994L2.48931 31.0997H2.23534C2.03215 31.0496 1.93056 30.9995 1.93056 30.8493C1.87977 29.7475 1.87977 29.1466 1.87977 28.9963H1.93056C1.93056 28.9462 1.93056 28.9462 1.87977 28.9462C1.98136 25.5408 2.03215 22.7864 2.08295 20.683C2.08295 20.683 2.13374 20.5829 2.13374 20.4326L2.08295 20.032C2.08295 19.7816 2.13374 19.5813 2.13374 19.431C2.03215 19.381 1.93056 19.3309 1.82897 19.3309H0.813063C0.660676 19.3309 0.609881 19.2808 0.559086 19.2307V19.1306C0.50829 18.9302 0.609881 18.8301 0.863858 18.8301ZM2.54011 26.1918C2.54011 26.2419 2.54011 26.292 2.5909 26.3421C2.54011 26.8429 2.54011 27.1934 2.54011 27.4438V27.544C2.54011 29.0464 2.69249 29.8978 2.99727 30.0981C2.99727 30.2984 3.25124 30.4486 3.7084 30.649C3.96238 30.699 4.11477 30.7491 4.21636 30.7491H4.31795C4.77511 30.7491 5.23227 30.3986 5.68943 29.6474C5.89261 28.8962 5.9942 28.2952 5.9942 27.7944V27.2936C5.9942 25.7912 5.79102 24.8898 5.38465 24.5893C5.07988 24.0885 4.57193 23.8882 3.86079 23.8882C3.25124 23.8882 2.79409 24.389 2.54011 25.3405C2.5909 25.3906 2.54011 25.691 2.54011 26.1918Z" fill="#1A1919"/>
<path d="M13.308 23.1855C14.781 23.1855 15.7462 23.8366 16.1525 25.0886C16.3557 25.339 16.4573 26.1403 16.4573 27.5425V27.9932C16.2541 29.696 15.8478 30.7476 15.3398 31.0982C15.0858 31.4988 14.6795 31.7492 14.1207 31.8995C14.0699 31.8995 13.8159 31.9496 13.4604 31.9996C12.5968 31.8494 12.0889 31.6491 11.9365 31.4988C11.3778 31.1984 10.8698 30.6475 10.565 29.8462C10.3618 29.1451 10.2603 28.3438 10.2603 27.3923C10.2603 26.3406 10.4634 25.5393 10.9206 24.8883C10.9206 24.738 11.3778 24.2873 12.2413 23.5361C12.6984 23.3358 13.054 23.2356 13.308 23.1855ZM10.9714 27.1419C10.9714 28.3438 11.073 29.2452 11.2762 29.746C11.2762 30.1467 11.6825 30.5974 12.4445 31.1984L13.4096 31.4988C14.1715 31.3486 14.6287 31.1483 14.8318 30.8478C15.1366 30.5974 15.4414 30.0465 15.5938 29.1451C15.6954 28.8947 15.7462 28.3438 15.8478 27.6427L15.797 27.3923C15.797 25.6395 15.4922 24.5878 14.8318 24.2372C14.3747 23.9367 14.0699 23.7865 13.9175 23.7865C13.7143 23.8366 13.6128 23.8366 13.6128 23.8366C13.4604 23.7865 13.3588 23.7865 13.2572 23.7865C12.546 24.1371 12.1397 24.3875 12.0889 24.5878C11.7841 24.738 11.4793 25.1887 11.1746 26.0401C11.0222 26.591 10.9714 26.9415 10.9714 27.1419Z" fill="#1A1919"/>
<path d="M23.1625 23.1855C24.6355 23.1855 25.6007 23.8366 26.007 25.0886C26.2102 25.339 26.3118 26.1403 26.3118 27.5425V27.9932C26.1086 29.696 25.7022 30.7476 25.1943 31.0982C24.9403 31.4988 24.534 31.7492 23.9752 31.8995C23.9244 31.8995 23.6704 31.9496 23.3149 31.9996C22.4513 31.8494 21.9434 31.6491 21.791 31.4988C21.2322 31.1984 20.7243 30.6475 20.4195 29.8462C20.2163 29.1451 20.1147 28.3438 20.1147 27.3923C20.1147 26.3406 20.3179 25.5393 20.7751 24.8883C20.7751 24.738 21.2322 24.2873 22.0958 23.5361C22.5529 23.3358 22.9085 23.2356 23.1625 23.1855ZM20.7751 27.1419C20.7751 28.3438 20.8767 29.2452 21.0799 29.746C21.0799 30.1467 21.4862 30.5974 22.2482 31.1984L23.2133 31.4988C23.9752 31.3486 24.4324 31.1483 24.6355 30.8478C24.9403 30.5974 25.2451 30.0465 25.3975 29.1451C25.4991 28.8947 25.5499 28.3438 25.6515 27.6427L25.6007 27.3923C25.6007 25.6395 25.2959 24.5878 24.6355 24.2372C24.1784 23.9367 23.8736 23.7865 23.7212 23.7865C23.518 23.8366 23.4165 23.8366 23.4165 23.8366C23.2641 23.7865 23.1625 23.7865 23.0609 23.7865C22.3497 24.1371 21.9434 24.3875 21.8926 24.5878C21.5878 24.738 21.283 25.1887 20.9783 26.0401C20.8259 26.591 20.7751 26.9415 20.7751 27.1419Z" fill="#1A1919"/>
<path d="M30.274 19.2822L31.0867 19.3824C31.1375 19.3824 31.1883 19.3323 31.2899 19.3323H31.3915C31.4423 19.3323 31.4423 19.3323 31.4423 19.3824C31.5947 19.3323 31.6963 19.2822 31.7471 19.2822L32.001 19.3323C32.001 19.3323 32.1026 19.3323 32.255 19.2822C32.3058 19.2822 32.3058 19.2822 32.3058 19.3323L32.509 19.2822C32.8646 19.3323 33.0169 19.4325 33.0169 19.5326C32.8646 21.5358 32.8138 22.9381 32.8138 23.6893C32.8138 23.9397 32.8138 24.2902 32.8645 24.6408C32.8645 24.791 32.8138 24.9413 32.8138 25.0915L32.8645 25.4421C32.8645 25.4921 32.8645 25.5422 32.8138 25.5422L32.8645 25.9429V27.6456H32.9153C35.4043 25.1917 36.6234 23.8896 36.6742 23.6893H36.6234C36.5726 23.6893 36.5726 23.6893 36.5218 23.6392C36.0139 23.6893 35.6583 23.7393 35.4551 23.7894C35.2519 23.7894 35.1503 23.6392 35.1503 23.3387C35.2011 23.1885 35.3027 23.0883 35.4551 23.0883L35.7091 23.1384C35.9123 23.1384 36.0139 23.0883 36.0139 23.0382L36.5218 23.0883H37.233C37.4361 23.0883 37.6393 23.0883 37.7917 23.0382C38.6552 23.0382 39.1124 23.1384 39.1124 23.3387V23.4389C39.0616 23.539 39.0108 23.6392 38.9092 23.7393L38.5536 23.6893H38.0965C37.9441 23.6893 37.7917 23.6392 37.6393 23.6392C37.233 23.9397 36.3186 24.8912 34.8964 26.4938V26.5939C34.8964 26.8443 35.2011 27.3952 35.7599 28.1464C36.0139 28.6472 36.5726 29.3984 37.4361 30.4C37.5377 30.5502 37.5885 30.6504 37.7409 30.7005L37.9949 30.6504C38.0457 30.6504 38.1981 30.6504 38.5028 30.7005C38.8584 30.7005 39.1632 30.6504 39.3664 30.6504C39.468 30.7506 39.468 30.8507 39.468 30.9509V31.001C39.468 31.1512 39.4172 31.2514 39.2648 31.3014C39.1124 31.3014 38.8584 31.3014 38.5536 31.2514C37.8425 31.3014 37.3853 31.3014 37.1822 31.3014C37.1314 31.3014 36.979 31.3014 36.8774 31.2514L35.9631 31.3515C35.8615 31.3014 35.7599 31.2514 35.7091 31.1512V31.051C35.7091 30.9008 35.8107 30.7506 36.0139 30.7005L36.8774 30.8006L36.9282 30.7005L35.4043 28.5971C35.4043 28.547 35.1503 28.0963 34.5916 27.295C34.5916 27.245 34.5408 27.1949 34.49 27.0947C34.4392 27.0947 34.1852 27.3451 33.7789 27.7958C33.3725 28.2966 33.1185 28.497 33.0677 28.497C33.0169 28.5971 32.9661 28.6973 32.9661 28.7474C32.9661 28.8475 32.9661 28.9477 33.0169 29.0478C32.9661 29.0979 32.9661 29.6989 32.9661 30.7506C33.0169 30.7506 33.0169 30.7506 33.0169 30.8006L34.3376 30.7005C34.4392 30.8006 34.4392 30.9509 34.4392 31.1011L34.3376 31.3014C33.7789 31.3515 33.3725 31.3515 33.1185 31.3515H33.0169C32.9661 31.3515 32.8138 31.4016 32.5598 31.4517C32.3566 31.3515 31.7978 31.3515 30.8327 31.3515H30.7311C30.6803 31.3515 30.528 31.4016 30.274 31.4517C30.1216 31.4016 30.0708 31.3014 30.0708 31.1512V30.9509C30.0708 30.8507 30.2232 30.8006 30.4772 30.7506L30.7819 30.8006H30.8835C31.1883 30.8006 31.6455 30.8006 32.3058 30.8507L32.3566 30.7506C32.3566 30.6504 32.4074 30.0494 32.4582 28.9978C32.4582 28.8475 32.4582 28.6472 32.4074 28.3968C32.4582 27.896 32.4582 27.3952 32.4582 26.8944C32.4582 26.3936 32.4582 25.8427 32.4074 25.2418C32.4582 24.9914 32.4582 24.791 32.4582 24.6408C32.4582 24.5406 32.4582 24.1901 32.4074 23.4889C32.509 21.4357 32.509 20.3339 32.509 20.1837V20.0334C32.509 19.9833 32.4582 19.9333 32.4074 19.9333H30.3756C30.274 19.8832 30.2232 19.783 30.2232 19.6328V19.5827C30.0708 19.4825 30.1216 19.3824 30.274 19.2822Z" fill="#1A1919"/>
<path d="M45.7668 22.7871H46.1224C46.8844 22.7871 47.6463 23.1377 48.3066 23.7887C48.3574 23.8889 48.4082 23.989 48.459 23.989L48.5098 23.7386C48.459 23.4882 48.459 23.2879 48.459 23.1377C48.5098 22.9874 48.6114 22.9373 48.7638 22.9373C48.967 22.9373 49.0686 23.0876 49.0686 23.4381V23.5383C49.0686 23.6385 49.0686 23.7386 49.0178 23.7887L49.1193 24.9906L49.0686 25.2911C49.1193 25.7418 49.1193 26.0924 49.1193 26.3428H49.0686C49.1193 26.493 49.1701 26.5932 49.1701 26.6433C49.1701 26.7935 49.0686 26.8937 48.9162 26.9938C48.6622 26.9938 48.5098 26.8937 48.5098 26.6934V25.9922C48.5098 25.2911 48.3574 24.8404 48.1034 24.59C47.9511 24.2394 47.6971 23.989 47.2907 23.8388C46.8843 23.5884 46.478 23.4381 45.97 23.4381C45.2589 23.5884 44.7001 23.7887 44.2938 24.1393C43.9382 24.4898 43.735 24.8404 43.6842 25.1909C43.7858 25.8921 43.9382 26.2426 44.1414 26.2426C44.3954 26.5431 44.7509 26.7434 45.2081 26.7434H45.2589C45.6653 26.7434 46.0208 26.7434 46.3764 26.6934C47.1383 26.6934 47.8495 26.9437 48.4082 27.4446C48.7638 27.8953 48.9162 28.2458 48.967 28.5964V29.0972C48.967 29.598 48.5098 30.199 47.6463 31.0002C47.0367 31.2506 46.6304 31.3508 46.3256 31.3508C45.6145 31.3508 44.8017 31.0503 43.8874 30.4494C43.8874 30.3492 43.8366 30.2991 43.735 30.249C43.735 30.2991 43.735 30.2991 43.6842 30.2991C43.6842 30.3993 43.735 30.5996 43.7858 31.0002C43.7858 31.1505 43.6842 31.2506 43.4811 31.3007C43.2271 31.3007 43.1255 31.0503 43.1255 30.4994V30.249C43.1255 29.8484 43.1255 29.598 43.1763 29.3977C43.1255 29.1473 43.1255 28.8969 43.1255 28.4962V27.745C43.1255 27.695 43.2271 27.6449 43.3795 27.5948C43.6334 27.5948 43.735 27.9954 43.735 28.8468C43.735 29.5479 44.2938 30.1489 45.4621 30.5996C45.6653 30.6998 45.8684 30.6998 46.0716 30.6998H46.478C47.0367 30.6998 47.5955 30.3993 48.0526 29.7983C48.3574 29.4978 48.5098 29.1473 48.5098 28.7466C48.5098 28.3961 48.205 27.9954 47.5447 27.5447C47.2907 27.3945 47.0367 27.3444 46.8336 27.3444H45.7161C45.6145 27.3444 45.4621 27.3444 45.2589 27.3945C44.8525 27.3945 44.3446 27.1942 43.8874 26.7935C43.5319 26.493 43.3287 26.0423 43.3287 25.3913C43.2779 25.3913 43.2779 25.3412 43.2779 25.2911C43.2779 24.5399 43.6842 23.8889 44.4462 23.3881C44.8017 23.0375 45.3097 22.8372 45.7668 22.7871Z" fill="#1A1919"/>
<path d="M60.1927 18.8301H61.615C61.869 18.8301 61.9705 18.9803 62.0213 19.3309C62.0213 19.381 62.0213 19.381 61.9705 19.381L62.0213 19.4811C61.9705 20.4827 61.9705 21.2339 61.9705 21.7347L61.9197 21.8349L61.9705 21.935C61.9197 22.2355 61.9197 22.3858 61.9197 22.4358C61.9197 22.4859 61.9197 22.6362 61.9705 22.7864C61.9197 22.9867 61.9197 23.137 61.9197 23.2371C61.9705 23.6378 61.9705 23.8381 61.9705 23.9883H62.0213C62.3769 23.5376 62.9357 23.3373 63.596 23.3373C64.1547 23.3373 64.7135 23.6378 65.2214 24.2387C65.6786 24.6894 65.9326 25.7912 65.9326 27.544C65.9326 29.0464 65.7294 29.9979 65.323 30.3485C64.7643 31.0997 64.2563 31.4502 63.7992 31.4502H63.3928C62.6309 31.3 62.2753 31.1498 62.2753 31.0496C62.2753 31.0496 62.1229 30.9494 61.9705 30.699H61.9197V31.0496L61.869 31.2499H61.615C61.4118 31.1998 61.3102 31.1498 61.3102 30.9995C61.2594 29.8978 61.2594 29.2968 61.2594 29.1466H61.3102C61.3102 29.0965 61.3102 29.0965 61.2594 29.0965C61.361 25.641 61.4626 22.8866 61.4626 20.8333C61.4626 20.8333 61.5134 20.7331 61.5134 20.5829L61.4626 20.1822C61.4626 19.9318 61.5134 19.7315 61.5134 19.5813C61.4118 19.5312 61.3102 19.4811 61.2086 19.4811H60.1927C60.0403 19.4811 59.9895 19.431 59.9387 19.381V19.2808C59.8879 18.9302 59.9895 18.8301 60.1927 18.8301ZM61.869 26.1918C61.869 26.2419 61.869 26.292 61.9197 26.3421C61.869 26.7928 61.869 27.1434 61.869 27.3938V27.4939C61.869 28.9963 62.0213 29.8477 62.3261 30.048C62.3261 30.2483 62.5801 30.3986 63.0372 30.5989C63.2912 30.649 63.4436 30.699 63.5452 30.699H63.6468C64.104 30.699 64.5611 30.3485 65.0183 29.5973C65.2215 28.8461 65.323 28.2451 65.323 27.7443V27.2435C65.323 25.7411 65.1199 24.8397 64.7135 24.5392C64.4087 24.0384 63.9008 23.8381 63.1896 23.8381C62.5801 23.8381 62.1229 24.3389 61.869 25.2904C61.9197 25.3906 61.9197 25.691 61.869 26.1918Z" fill="#1A1919"/>
<path d="M72.1804 22.585C72.6376 22.635 73.1455 22.8854 73.7551 23.4363C73.9074 23.6366 73.9582 24.0373 73.9582 24.6883V25.2893C73.9582 26.8918 73.8566 28.3442 73.6535 29.5962C73.7043 29.6462 73.7043 29.6963 73.7043 29.6963L73.6535 29.9968C73.7043 30.5477 73.8566 30.8482 74.0598 30.8482C74.2122 30.7981 74.3138 30.6478 74.3138 30.3974C74.263 30.2472 74.263 30.147 74.263 30.0469C74.3646 29.9467 74.4662 29.8966 74.5678 29.8966H74.6694C74.9233 29.8966 75.0249 30.0469 75.0249 30.3974C74.9233 30.9984 74.7202 31.349 74.3646 31.349C74.3646 31.399 74.263 31.4491 74.0598 31.4491H73.9582C73.7551 31.4491 73.4503 31.2989 73.1455 30.9483C72.8407 31.349 72.282 31.5493 71.5201 31.5493C70.7581 31.5493 70.1486 31.0485 69.7422 29.9968C69.6406 29.5461 69.6406 29.1454 69.6406 28.845C69.8438 27.8934 70.047 27.4427 70.2502 27.4427C70.3518 27.2925 70.9613 27.0421 72.0788 26.6414C72.4344 26.391 72.7391 26.1406 72.9931 25.8902C73.1963 25.5397 73.2979 25.139 73.2979 24.6382V24.1374C73.2979 23.6366 72.8915 23.3362 72.0788 23.1859H71.9772C71.3677 23.1859 70.9105 23.4363 70.5549 23.9371C70.4533 24.2877 70.4533 24.488 70.4533 24.6382V24.7384C70.5549 24.8886 70.7581 25.0389 71.0629 25.1891L71.1645 25.4896C71.0629 25.8902 70.9105 26.0405 70.6565 26.0405C70.301 26.0405 70.0978 25.7901 69.9454 25.2893C69.8946 24.9888 69.8946 24.6883 69.8946 24.3878C69.8946 24.0373 70.047 23.6366 70.4026 23.2861C70.9613 22.7853 71.5709 22.585 72.1804 22.585ZM70.301 29.0453C70.301 29.9968 70.5549 30.5477 71.0629 30.8482C71.1645 30.8982 71.2661 30.9483 71.3677 30.9483H71.4185C72.1804 30.9483 72.7391 30.5477 73.0439 29.7464L73.2979 26.8918V26.5914C73.2979 26.5413 73.2471 26.4912 73.1963 26.4912C73.0947 26.4912 72.9423 26.6414 72.6884 26.8918C72.3836 27.0922 71.8248 27.3426 71.0121 27.593C70.5549 27.8934 70.301 28.3442 70.301 29.0453Z" fill="#1A1919"/>
<path d="M79.0377 23.1377C79.2409 23.1377 80.0028 23.1377 81.2727 23.1878L81.4251 23.1377C81.6283 23.2379 81.7298 23.338 81.7298 23.5383C81.679 23.939 81.679 24.2395 81.679 24.4899V24.59C81.679 24.6401 81.7298 24.6401 81.7806 24.6401C82.7965 23.939 83.5585 23.5383 84.1172 23.4382C84.4728 23.2879 84.8284 23.1878 85.1331 23.1878C85.6411 23.1878 86.0475 23.338 86.2506 23.5884C86.403 23.5884 86.6062 23.8889 86.8094 24.5399C86.8602 24.59 86.8602 24.6401 86.8602 24.7403C86.7586 25.6417 86.5046 26.0924 86.0982 26.0924C85.8951 26.2427 85.5903 26.3428 85.0823 26.3428C84.5744 26.1926 84.3204 25.9422 84.3204 25.5415C84.3712 25.0908 84.6252 24.8905 85.0315 24.8905C85.3871 24.9406 85.5903 25.0908 85.5903 25.3412V25.7419C86.0475 25.6417 86.2506 25.3412 86.2506 24.8404C86.2506 24.3396 85.9967 23.9891 85.5395 23.8388C85.2855 23.8388 85.1839 23.8388 85.1839 23.7887C84.0156 24.0391 82.9997 24.4899 82.187 25.191C81.8822 25.3913 81.679 25.5415 81.679 25.7419V26.4931C81.679 26.6433 81.679 26.7435 81.7298 26.8436C81.6282 28.0455 81.6282 29.1473 81.6282 30.0988V30.5495C81.6282 30.5996 81.679 30.5996 81.7298 30.6497H82.187C82.2886 30.6497 82.3902 30.6497 82.4918 30.5996L82.695 30.6497C82.9489 30.5996 83.1013 30.5996 83.2029 30.5996C83.3045 30.6998 83.3045 30.7999 83.3045 30.85V30.9001C83.3045 31.0503 83.2537 31.1505 83.1521 31.1505C80.7139 31.2006 79.4948 31.2006 79.4948 31.2507C79.2409 31.2507 79.0885 31.1505 78.9869 30.9502C78.9869 30.6998 79.0885 30.5996 79.2917 30.5996H80.8155C80.8663 30.5996 80.9171 30.5495 80.9171 30.4995V30.0988C80.9171 29.8985 80.9171 29.7483 80.9679 29.6481C80.9171 29.4979 80.9171 29.3977 80.9171 29.2475C80.9171 29.0471 80.9679 28.3961 81.0187 27.3444C81.0187 27.2943 81.0187 27.2443 80.9679 27.2443L81.0187 26.7935V25.8921C81.0187 25.6417 81.0187 25.4414 80.9679 25.2911C81.0187 25.1409 81.0187 24.9406 81.0187 24.6902V23.7887C81.0187 23.7387 80.9679 23.7387 80.9171 23.6886H80.7647C80.4092 23.6886 80.0028 23.6886 79.5964 23.6385C79.2409 23.6886 79.0885 23.7387 79.0377 23.7387C78.9361 23.7387 78.8345 23.6385 78.7329 23.4382C78.7837 23.2379 78.8853 23.1377 79.0377 23.1377Z" fill="#1A1919"/>
<path d="M92.4478 23.0879H92.8542C93.7177 23.0879 94.3272 23.5887 94.7844 24.5903C94.886 24.9409 94.886 25.2413 94.886 25.4417C94.886 26.3932 94.632 26.9441 94.0733 27.0943H93.9717C93.7177 27.0943 93.5653 26.9441 93.5653 26.6436C93.5653 26.5434 93.7685 26.0426 94.1748 25.0911V24.9409C94.1748 24.6404 93.9717 24.2898 93.5145 23.9393C93.2097 23.7389 92.905 23.6889 92.651 23.6388C92.2446 23.6388 91.8891 23.8892 91.5335 24.39C91.2287 25.1412 91.0763 25.7421 91.0763 26.1929C91.0763 27.7954 91.1779 28.797 91.3811 29.1476C91.3811 29.4981 91.5843 29.9489 92.0414 30.3996C92.397 30.7001 92.7018 30.8503 92.9558 30.8503H93.1589C93.4637 30.8503 93.8193 30.4997 94.2256 29.7485C94.378 29.0975 94.5304 28.7469 94.6828 28.7469C94.8352 28.797 94.9368 28.9473 94.9368 29.1476C94.9368 29.9489 94.4796 30.65 93.5653 31.2509C93.3113 31.301 93.1081 31.3511 92.9558 31.3511C92.2446 31.3511 91.6351 30.9505 91.1271 30.1492C90.7208 29.398 90.5176 28.1961 90.5176 26.5935V26.3431C90.5176 25.1412 90.8731 24.1396 91.5843 23.3884C91.9906 23.1881 92.2954 23.0879 92.4478 23.0879Z" fill="#1A1919"/>
<path d="M101.845 23.0371C102.404 23.1373 102.912 23.3376 103.267 23.6381C103.826 24.3392 104.131 25.0403 104.131 25.7414C104.182 25.9418 104.182 26.3424 104.182 26.8432C104.182 27.4441 103.928 27.6946 103.42 27.6445C103.115 27.6946 102.404 27.6946 101.286 27.7446C100.22 27.6946 99.6102 27.6946 99.5086 27.6445C99.3562 27.6445 99.2546 27.7446 99.2546 27.8949V28.2454C99.3054 29.0467 99.5594 29.7478 99.9657 30.3488C100.017 30.3488 100.169 30.449 100.372 30.5992C100.575 30.7494 100.931 30.8496 101.286 30.9498C102.048 30.8496 102.404 30.7494 102.404 30.5992C102.709 30.449 102.912 30.2486 103.115 29.9482V29.848C102.963 29.6477 102.861 29.4974 102.861 29.3973V29.247C103.013 28.7963 103.217 28.5459 103.471 28.5459C103.725 28.596 103.877 28.6962 103.877 28.8464V28.9466C103.877 28.9966 103.877 29.0467 103.826 29.0968C103.877 29.1469 103.877 29.197 103.877 29.247C103.826 29.6978 103.725 30.0984 103.572 30.3488C103.42 30.499 103.217 30.6994 103.013 30.8496C102.556 31.2502 102.099 31.5006 101.744 31.5006H101.185C101.134 31.5006 101.134 31.5006 101.134 31.4506L101.032 31.5006H100.931C100.067 31.2502 99.5594 30.9998 99.407 30.6994C98.8482 30.0483 98.5943 29.0467 98.5943 27.7446C98.5943 27.4442 98.5943 27.1938 98.5435 26.9934C98.5943 26.8432 98.5943 26.693 98.5943 26.4425C98.5943 26.3424 98.5943 26.1922 98.5435 25.9918C98.645 25.0904 98.7466 24.6897 98.8482 24.6897C99.153 23.9886 99.8133 23.4878 100.728 23.1373C100.982 23.1373 101.286 23.0872 101.845 23.0371ZM99.3054 27.0435H99.6102L99.8641 27.0936C99.9149 27.0936 99.9149 27.0936 99.9149 27.0435C100.169 27.0936 100.372 27.0936 100.524 27.0936H101.185C101.286 27.0936 101.286 27.0936 101.286 27.1437L101.49 27.0936H102.353C103.217 27.0936 103.623 27.0435 103.623 26.8933V26.8432L103.572 25.5411C103.369 24.7398 103.013 24.189 102.556 23.8885L101.845 23.6881C100.677 23.6881 99.8641 24.239 99.407 25.3408C99.3562 25.4409 99.3054 26.0419 99.3054 27.0435Z" fill="#1A1919"/>
<path d="M110.632 18.9307C110.734 18.9307 110.835 19.0809 110.937 19.3814C110.886 19.6819 110.835 19.8822 110.835 20.0324V20.383C110.835 21.0841 110.835 21.6851 110.886 22.1358L110.785 24.0889L110.886 27.2439L110.835 27.5444C110.835 27.5945 110.835 27.6947 110.886 27.8449C110.886 28.4459 110.835 28.9967 110.835 29.5476V29.6478C110.835 30.4491 110.886 30.7996 110.937 30.7996C111.039 30.7996 111.14 30.7996 111.242 30.7495L111.75 30.7996C112.105 30.7495 112.359 30.7495 112.461 30.7495C112.613 30.7996 112.715 30.8998 112.715 31.05C112.715 31.2003 112.664 31.3004 112.562 31.3505H111.445C111.14 31.3505 110.937 31.3505 110.785 31.4006C110.581 31.4006 110.429 31.3505 110.277 31.3505C108.956 31.4006 108.194 31.4006 107.991 31.4006C107.889 31.3004 107.889 31.2003 107.889 31.1001C107.889 30.8998 107.991 30.7495 108.194 30.7495H108.245C108.55 30.7495 108.753 30.7495 108.854 30.7996C109.108 30.7495 109.261 30.7495 109.413 30.7495C109.87 30.7996 110.175 30.7996 110.226 30.7996C110.226 30.7495 110.277 30.6995 110.327 30.6995L110.277 30.5993V30.0484C110.277 29.8481 110.277 29.7479 110.226 29.7479C110.277 29.5476 110.277 29.3974 110.277 29.2972V28.2956C110.277 28.1454 110.277 28.0452 110.226 27.9951C110.277 27.8449 110.277 27.7447 110.277 27.6446V27.4443C110.277 26.4927 110.277 25.4911 110.226 24.3894C110.277 23.4879 110.327 22.7367 110.327 22.1358C110.327 21.9355 110.327 21.1843 110.277 19.8321C110.327 19.782 110.327 19.7319 110.327 19.7319C110.226 19.6819 110.175 19.6318 110.124 19.6318C110.124 19.6318 110.023 19.6318 109.87 19.6819L109.769 19.6318C109.667 19.6819 109.515 19.7319 109.312 19.7319H108.905C108.753 19.7319 108.651 19.7319 108.55 19.6819C108.397 19.7319 108.245 19.7319 108.143 19.7319H107.838C107.686 19.7319 107.584 19.6819 107.534 19.5316V19.4315C107.534 19.2812 107.635 19.1811 107.788 19.131C108.143 19.1811 108.448 19.1811 108.6 19.1811H108.905C109.718 19.0809 110.277 19.0308 110.632 18.9307Z" fill="#1A1919"/>
<path d="M119.42 23.1855C120.893 23.1855 121.858 23.8366 122.265 25.0886C122.468 25.339 122.57 26.1403 122.57 27.5425V27.9932C122.366 29.696 121.96 30.7476 121.452 31.0982C121.198 31.4988 120.792 31.7492 120.233 31.8995C120.182 31.8995 119.928 31.9496 119.573 31.9996C118.709 31.8494 118.201 31.6491 118.049 31.4988C117.49 31.1984 116.982 30.6475 116.677 29.8462C116.474 29.1451 116.373 28.3438 116.373 27.3923C116.373 26.3406 116.576 25.5393 117.033 24.8883C117.033 24.738 117.49 24.2873 118.354 23.5361C118.811 23.3358 119.166 23.2356 119.42 23.1855ZM117.084 27.1419C117.084 28.3438 117.185 29.2452 117.388 29.746C117.388 30.1467 117.795 30.5974 118.557 31.1984L119.522 31.4988C120.284 31.3486 120.741 31.1483 120.944 30.8478C121.249 30.5974 121.554 30.0465 121.706 29.1451C121.808 28.8947 121.858 28.3438 121.96 27.6427L121.909 27.3923C121.909 25.6395 121.604 24.5878 120.944 24.2372C120.487 23.9367 120.182 23.7865 120.03 23.7865C119.827 23.8366 119.725 23.8366 119.725 23.8366C119.573 23.7865 119.471 23.7865 119.369 23.7865C118.658 24.1371 118.252 24.3875 118.201 24.5878C117.896 24.738 117.592 25.1887 117.287 26.0401C117.134 26.591 117.084 26.9415 117.084 27.1419Z" fill="#1A1919"/>
<path d="M128.564 22.8857C128.665 22.8857 128.767 22.9859 128.869 23.2363V23.7872L128.818 24.1878C129.123 23.7371 129.681 23.4366 130.443 23.2864H130.951C131.408 23.3365 131.764 23.5368 132.069 23.8873C132.424 24.3881 132.577 24.7888 132.577 25.0893C132.526 26.0408 132.526 26.5416 132.475 26.6417C132.526 27.0424 132.526 27.443 132.526 27.7435V30.3477C132.526 30.6481 132.577 30.7984 132.627 30.7984H133.643C133.745 30.7984 133.846 30.7984 133.999 30.7483C134.151 30.7984 134.253 30.8985 134.253 31.0488C134.253 31.199 134.202 31.2992 134.1 31.3493H133.846C133.796 31.3493 133.796 31.3493 133.796 31.2992L133.694 31.3493H132.577C132.526 31.3493 132.373 31.3993 132.17 31.4494C131.916 31.3493 131.764 31.3493 131.662 31.3493H131.256C131.154 31.3493 131.002 31.3493 130.799 31.3993C130.494 31.3993 130.342 31.2992 130.342 31.0989V30.9987C130.342 30.8985 130.443 30.8485 130.646 30.7984C131.205 30.8485 131.561 30.8985 131.764 30.8985L131.865 30.7984V28.1942C131.865 28.1441 131.865 28.1441 131.916 28.1441L131.865 28.044V27.0925C131.865 26.7419 131.865 26.191 131.916 25.5901C131.764 24.5384 131.307 24.0376 130.545 24.0376C129.884 24.1878 129.478 24.3381 129.275 24.5885C128.869 25.3397 128.665 25.8905 128.665 26.3413V26.9422C128.665 26.9923 128.665 27.0424 128.615 27.0925L128.665 27.1926C128.564 28.4947 128.564 29.3961 128.564 29.8469C128.615 30.0472 128.615 30.1473 128.615 30.1473C128.564 30.1974 128.564 30.2475 128.564 30.2976C128.564 30.2976 128.564 30.3977 128.615 30.548L128.564 30.7483C128.564 30.7984 128.615 30.8485 128.665 30.9486L128.869 30.8985H129.123C129.275 30.8985 129.478 30.8985 129.732 30.8485C129.834 30.9486 129.884 31.0989 129.884 31.199C129.884 31.3993 129.63 31.4995 129.123 31.4995L128.97 31.4494C128.665 31.4995 128.107 31.5496 127.395 31.5496L127.243 31.4995C127.141 31.5496 127.04 31.5496 126.938 31.5496H126.684C126.532 31.4494 126.43 31.3493 126.43 31.2491C126.43 31.0989 126.481 30.9987 126.634 30.9486C126.786 30.9486 127.192 30.9486 127.903 30.9987L128.005 30.8985V29.9971C128.157 26.792 128.208 24.7387 128.208 23.8373L128.107 23.7872H127.751C127.7 23.7872 127.345 23.7872 126.684 23.7371C126.43 23.7872 126.227 23.7872 126.075 23.7872C125.922 23.7371 125.821 23.6369 125.821 23.4867C125.821 23.3365 125.922 23.2363 126.176 23.1361C127.141 23.1862 127.751 23.1862 127.954 23.1361L128.564 22.8857Z" fill="#1A1919"/>
<path d="M140.602 22.585C141.059 22.635 141.567 22.8854 142.176 23.4363C142.329 23.6366 142.38 24.0373 142.38 24.6883V25.2893C142.38 26.8918 142.278 28.3442 142.075 29.5962C142.126 29.6462 142.126 29.6963 142.126 29.6963L142.075 29.9968C142.126 30.5477 142.278 30.8482 142.481 30.8482C142.634 30.7981 142.735 30.6478 142.735 30.3974C142.684 30.2472 142.684 30.147 142.684 30.0469C142.786 29.9467 142.888 29.8966 142.989 29.8966H143.091C143.345 29.8966 143.446 30.0469 143.446 30.3974C143.345 30.9984 143.142 31.349 142.786 31.349C142.786 31.399 142.684 31.4491 142.481 31.4491H142.38C142.176 31.4491 141.872 31.2989 141.567 30.9483H141.516C141.211 31.349 140.653 31.5493 139.891 31.5493C139.129 31.5493 138.519 31.0485 138.113 29.9968C138.011 29.5461 138.011 29.1454 138.011 28.845C138.214 27.8934 138.418 27.4427 138.621 27.4427C138.722 27.2925 139.332 27.0421 140.449 26.6414C140.805 26.391 141.11 26.1406 141.364 25.8902C141.567 25.5397 141.668 25.139 141.668 24.6382V24.1374C141.668 23.6366 141.262 23.3362 140.449 23.1859H140.348C139.738 23.1859 139.281 23.4363 138.926 23.9371C138.824 24.2877 138.824 24.488 138.824 24.6382V24.7384C138.926 24.8886 139.129 25.0389 139.433 25.1891L139.535 25.4896C139.434 25.8902 139.281 26.0405 139.027 26.0405C138.672 26.0405 138.468 25.7901 138.316 25.2893C138.265 24.9888 138.265 24.6883 138.265 24.3878C138.265 24.0373 138.418 23.6366 138.773 23.2861C139.383 22.7853 139.941 22.585 140.602 22.585ZM138.722 29.0453C138.722 29.9968 138.976 30.5477 139.484 30.8482C139.586 30.8982 139.687 30.9483 139.789 30.9483H139.84C140.602 30.9483 141.161 30.5477 141.465 29.7464L141.719 26.8918V26.5914C141.719 26.5413 141.668 26.4912 141.618 26.4912C141.516 26.4912 141.364 26.6414 141.11 26.8918C140.805 27.0922 140.246 27.3426 139.433 27.593C138.976 27.8934 138.722 28.3442 138.722 29.0453Z" fill="#1A1919"/>
<path d="M15.6959 6.31142C15.5435 6.16118 15.4927 5.96086 15.4927 5.71046C15.4927 5.46006 15.5435 5.25974 15.6959 5.1095C15.8482 4.95926 16.0514 4.90918 16.3054 4.90918C16.5594 4.90918 16.7626 4.95926 16.9149 5.1095C17.0673 5.25974 17.1181 5.46006 17.1181 5.71046C17.1181 5.96086 17.0673 6.16118 16.9149 6.31142C16.7626 6.41158 16.5594 6.51174 16.3054 6.51174C16.0514 6.51174 15.8482 6.41158 15.6959 6.31142Z" fill="#1A1919"/>
<path d="M35.9127 6.31142C35.7603 6.16118 35.7095 5.96086 35.7095 5.71046C35.7095 5.46006 35.7603 5.25974 35.9127 5.1095C36.065 4.95926 36.2682 4.90918 36.5222 4.90918C36.7762 4.90918 36.9794 4.95926 37.1317 5.1095C37.2841 5.25974 37.3349 5.46006 37.3349 5.71046C37.3349 5.96086 37.2841 6.16118 37.1317 6.31142C36.9794 6.46166 36.7762 6.51174 36.5222 6.51174C36.2174 6.51174 36.065 6.41158 35.9127 6.31142Z" fill="#1A1919"/>
<path d="M54.605 6.31142C54.4527 6.16118 54.4019 5.96086 54.4019 5.71046C54.4019 5.46006 54.4527 5.25974 54.605 5.1095C54.7574 4.95926 54.9606 4.90918 55.2146 4.90918C55.4686 4.90918 55.6717 4.95926 55.8241 5.1095C55.9765 5.25974 56.0273 5.46006 56.0273 5.71046C56.0273 5.96086 55.9765 6.16118 55.8241 6.31142C55.6717 6.46166 55.4686 6.51174 55.2146 6.51174C54.9606 6.51174 54.7574 6.41158 54.605 6.31142Z" fill="#1A1919"/>
<path d="M75.2789 6.31142C75.1265 6.16118 75.0757 5.96086 75.0757 5.71046C75.0757 5.46006 75.1265 5.25974 75.2789 5.1095C75.4312 4.95926 75.6344 4.90918 75.8884 4.90918C76.1424 4.90918 76.3456 4.95926 76.498 5.1095C76.6503 5.25974 76.7011 5.46006 76.7011 5.71046C76.7011 5.96086 76.6503 6.16118 76.498 6.31142C76.3456 6.46166 76.1424 6.51174 75.8884 6.51174C75.6344 6.51174 75.4312 6.41158 75.2789 6.31142Z" fill="#1A1919"/>
<path d="M95.6988 6.31142C95.5464 6.16118 95.4956 5.96086 95.4956 5.71046C95.4956 5.46006 95.5464 5.25974 95.6988 5.1095C95.8512 4.95926 96.0544 4.90918 96.3083 4.90918C96.5623 4.90918 96.7655 4.95926 96.9179 5.1095C97.0703 5.25974 97.1211 5.46006 97.1211 5.71046C97.1211 5.96086 97.0703 6.16118 96.9179 6.31142C96.7655 6.46166 96.5623 6.51174 96.3083 6.51174C96.0544 6.51174 95.8512 6.41158 95.6988 6.31142Z" fill="#1A1919"/>
<path d="M109.312 6.31142C109.159 6.16118 109.108 5.96086 109.108 5.71046C109.108 5.46006 109.159 5.25974 109.312 5.1095C109.464 4.95926 109.667 4.90918 109.921 4.90918C110.175 4.90918 110.378 4.95926 110.531 5.1095C110.683 5.25974 110.734 5.46006 110.734 5.71046C110.734 5.96086 110.683 6.16118 110.531 6.31142C110.378 6.46166 110.175 6.51174 109.921 6.51174C109.667 6.51174 109.464 6.41158 109.312 6.31142Z" fill="#1A1919"/>
<path d="M127.141 6.31142C126.989 6.16118 126.938 5.96086 126.938 5.71046C126.938 5.46006 126.989 5.25974 127.141 5.1095C127.294 4.95926 127.497 4.90918 127.751 4.90918C128.005 4.90918 128.208 4.95926 128.36 5.1095C128.513 5.25974 128.563 5.46006 128.563 5.71046C128.563 5.96086 128.513 6.16118 128.36 6.31142C128.208 6.46166 128.005 6.51174 127.751 6.51174C127.497 6.51174 127.294 6.41158 127.141 6.31142Z" fill="#1A1919"/>
</svg>
